<svg xmlns="http://www.w3.org/2000/svg" viewBox="-100 -100 200 200">
<title>
Sunset over the sea
</title>
<desc>
A sailboat and a lighthouse in front of the setting sun
</desc>
<defs>
<linearGradient id="sky" x1="0.5" y1="1" x2="0.5" y2="0">
<stop offset="0" stop-color="#FFC56B"/>
<stop offset="0.25" stop-color="#FF8552"/>
<stop offset="0.5" stop-color="#D9507A"/>
<stop offset="0.75" stop-color="#6B3A7D"/>
<stop offset="1" stop-color="#2A2456"/>
</linearGradient>
<linearGradient id="sea" x1="0.5" y1="1" x2="0.5" y2="0">
<stop offset="0" stop-color="#0B1238"/>
<stop offset="0.5" stop-color="#3A2A6B"/>
<stop offset="1" stop-color="#C85A6A"/>
</linearGradient>
<radialGradient id="sun">
<stop offset="0" stop-color="#FFF7C2"/>
<stop offset="0.5" stop-color="#FFE08A"/>
<stop offset="1" stop-color="#FFB347"/>
</radialGradient>
<radialGradient id="halo">
<stop offset="0" stop-color="#FFE9A0" stop-opacity="0.4"/>
<stop offset="0.5" stop-color="#FFB347" stop-opacity="0.2"/>
<stop offset="1" stop-color="#FF8552" stop-opacity="0"/>
</radialGradient>
<linearGradient id="beam" x1="0" y1="0.5" x2="1" y2="0.5">
<stop offset="0" stop-color="#FFF3B0" stop-opacity="0"/>
<stop offset="1" stop-color="#FFF3B0" stop-opacity="0.4"/>
</linearGradient>
</defs>
<polygon style="fill:url(#sky)" points="-100,100 100,100 100,-100 -100,-100 "/>
<circle style="fill:url(#halo)" cx="0" cy="6" r="78"/>
<circle style="fill:url(#sun)" cx="0" cy="6" r="24"/>
<ellipse style="fill:#FFD3A0;fill-opacity:0.333" cx="-50" cy="-48" rx="44" ry="4"/>
<ellipse style="fill:#FFB89A;fill-opacity:0.333" cx="-30" cy="-55" rx="28" ry="3"/>
<ellipse style="fill:#FFC9A0;fill-opacity:0.4" cx="40" cy="-36" rx="46" ry="4.5"/>
<ellipse style="fill:#FF9E80;fill-opacity:0.333" cx="62" cy="-44" rx="26" ry="3"/>
<ellipse style="fill:#C86A9A;fill-opacity:0.333" cx="10" cy="-70" rx="40" ry="3.5"/>
<ellipse style="fill:#A45A9A;fill-opacity:0.333" cx="-60" cy="-84" rx="26" ry="3"/>
<ellipse style="fill:#FFDCAE;fill-opacity:0.4" cx="-72" cy="-22" rx="24" ry="2.5"/>
<path style="fill:#4A2C5E" d="M -100 10 L -100 2 Q -84 -6 -70 1 Q -58 -4 -46 10 Z"/>
<path style="fill:#5A3366" d="M -64 10 Q -50 4 -38 7 Q -30 5 -24 10 Z"/>
<polygon style="fill:url(#sea)" points="-100,100 100,100 100,10 -100,10 "/>
<polyline style="fill:none;stroke-width:1.6;stroke:#FFE08A;stroke-opacity:0.565;stroke-dasharray:5 3;stroke-linecap:round" points="-10,15 10,15 "/>
<polyline style="fill:none;stroke-width:1.85;stroke:#FFE08A;stroke-opacity:0.502;stroke-dasharray:6 3.5;stroke-linecap:round" points="-13,24 13,24 "/>
<polyline style="fill:none;stroke-width:2.1;stroke:#FFE08A;stroke-opacity:0.439;stroke-dasharray:7 4;stroke-linecap:round" points="-16,33 16,33 "/>
<polyline style="fill:none;stroke-width:2.35;stroke:#FFE08A;stroke-opacity:0.376;stroke-dasharray:8 4.5;stroke-linecap:round" points="-19,42 19,42 "/>
<polyline style="fill:none;stroke-width:2.6;stroke:#FFE08A;stroke-opacity:0.314;stroke-dasharray:9 5;stroke-linecap:round" points="-22,51 22,51 "/>
<polyline style="fill:none;stroke-width:2.85;stroke:#FFE08A;stroke-opacity:0.251;stroke-dasharray:10 5.5;stroke-linecap:round" points="-25,60 25,60 "/>
<polyline style="fill:none;stroke-width:3.1;stroke:#FFE08A;stroke-opacity:0.188;stroke-dasharray:11 6;stroke-linecap:round" points="-28,69 28,69 "/>
<polyline style="fill:none;stroke-width:3.35;stroke:#FFE08A;stroke-opacity:0.125;stroke-dasharray:12 6.5;stroke-linecap:round" points="-31,78 31,78 "/>
<polyline style="fill:none;stroke-width:3.6;stroke:#FFE08A;stroke-opacity:0.063;stroke-dasharray:13 7;stroke-linecap:round" points="-34,87 34,87 "/>
<path style="fill:#1C1430" d="M 100 100 L 100 0 L 71 0 Q 64 3 60 14 Q 53 24 42 30 Q 54 64 46 100 Z"/>
<polygon style="fill:url(#beam)" points="79,-34 79,-30 -40,-66 -40,-6 "/>
<polygon style="fill:#F4EAD8" points="76,-33 84,-33 86.5,1 73.5,1 "/>
<polygon style="fill:#C8394B" points="75.3,-23.5 84.7,-23.5 85.065,-18.5 74.935,-18.5 "/>
<polygon style="fill:#C8394B" points="74.2,-8.5 85.8,-8.5 86.17,-3.5 73.83,-3.5 "/>
<path style="fill:#1C1430" d="M 75.5 -33 L 84.5 -33 C 85.052 -33 85.5 -33.448 85.5 -34 L 85.5 -34 C 85.5 -34.552 85.052 -35 84.5 -35 L 75.5 -35 C 74.948 -35 74.5 -34.552 74.5 -34 L 74.5 -34 C 74.5 -33.448 74.948 -33 75.5 -33 Z"/>
<polygon style="fill:#FFF3B0" points="76.5,-35 83.5,-35 83.5,-41 76.5,-41 "/>
<polygon style="fill:#1C1430" points="74.5,-41 85.5,-41 80,-48 "/>
<path style="fill:#1C1430" d="M 80 0.7 L 80 0.7 C 80.828 0.7 81.5 0.028 81.5 -0.8 L 81.5 -2.8 C 81.5 -3.628 80.828 -4.3 80 -4.3 L 80 -4.3 C 79.172 -4.3 78.5 -3.628 78.5 -2.8 L 78.5 -0.8 C 78.5 0.028 79.172 0.7 80 0.7 Z"/>
<polygon style="fill:#2B1D42" points="72.5,-1.4 87.5,-1.4 89,1 71,1 "/>
<g transform="translate(-50 22)">
<path style="fill:#1C1430" d="M -17 0 L 17 0 L 12 7 L -12 7 Z"/>
<polyline style="fill:none;stroke-width:1.4;stroke:#1C1430" points="0,0 0,-40 "/>
<path style="fill:#2B1D42" d="M 2 -4 L 2 -38 Q 14 -24 22 -4 Z"/>
<path style="fill:#2B1D42" d="M -2 -6 L -2 -30 Q -10 -18 -14 -6 Z"/>
</g>
<polyline style="fill:none;stroke-width:1.2;stroke:#1C1430;stroke-opacity:0.4;stroke-dasharray:5 3;stroke-linecap:round" points="-64,32 -36,32 "/>
<polyline style="fill:none;stroke-width:1.2;stroke:#1C1430;stroke-opacity:0.4;stroke-dasharray:5 3;stroke-linecap:round" points="-61,36 -39,36 "/>
<polyline style="fill:none;stroke-width:1.2;stroke:#1C1430;stroke-opacity:0.4;stroke-dasharray:5 3;stroke-linecap:round" points="-58,40 -42,40 "/>
<path style="fill:none;stroke-width:1.2;stroke:#2A2456;stroke-linecap:round;stroke-linejoin:round" d="M -44 -50 Q -40 -55 -36 -50 Q -32 -55 -28 -50"/>
<path style="fill:none;stroke-width:1.2;stroke:#2A2456;stroke-linecap:round;stroke-linejoin:round" d="M -27 -56 Q -23 -61 -19 -56 Q -15 -61 -11 -56"/>
<path style="fill:none;stroke-width:1.2;stroke:#2A2456;stroke-linecap:round;stroke-linejoin:round" d="M -10 -44 Q -6 -49 -2 -44 Q 2 -49 6 -44"/>
<path style="fill:none;stroke-width:1.2;stroke:#2A2456;stroke-linecap:round;stroke-linejoin:round" d="M 7 -50 Q 11 -55 15 -50 Q 19 -55 23 -50"/>
<text style="fill:#FFFFFF;fill-opacity:0.667" x="-94" y="92" font-size="8" font-family="serif" font-style="italic" text-anchor="start" dominant-baseline="middle">
Sketch2SVG
</text>
</svg>